<?xml version="1.0" encoding="iso-8859-1"?><!-- Generator: Adobe Illustrator 22.0.1, SVG Export Plug-In . SVG Version: 6.00 Build 0)  --><svg xmlns="http://www.w3.org/2000/svg" xmlns:xlink="http://www.w3.org/1999/xlink" viewBox="0 0 64 64" width="512px" height="512px"><linearGradient id="SVGID_1__69425" gradientUnits="userSpaceOnUse" x1="32" y1="9.0833" x2="32" y2="54.6759" spreadMethod="reflect"><stop offset="0" style="stop-color:#1A6DFF"/><stop offset="1" style="stop-color:#C822FF"/></linearGradient><path style="fill:url(#SVGID_1__69425);" d="M50,55H14c-2.757,0-5-2.243-5-5V14c0-2.757,2.243-5,5-5h36c2.757,0,5,2.243,5,5v36  C55,52.757,52.757,55,50,55z M14,11c-1.654,0-3,1.346-3,3v36c0,1.654,1.346,3,3,3h36c1.654,0,3-1.346,3-3V14c0-1.654-1.346-3-3-3H14  z"/><linearGradient id="SVGID_2__69425" gradientUnits="userSpaceOnUse" x1="40" y1="32" x2="40" y2="44" spreadMethod="reflect"><stop offset="0" style="stop-color:#6DC7FF"/><stop offset="1" style="stop-color:#E6ABFF"/></linearGradient><path style="fill:url(#SVGID_2__69425);" d="M38,43V33c0-0.552,0.448-1,1-1h2c0.552,0,1,0.448,1,1v10c0,0.552-0.448,1-1,1h-2  C38.448,44,38,43.552,38,43z"/><linearGradient id="SVGID_3__69425" gradientUnits="userSpaceOnUse" x1="40" y1="26" x2="40" y2="30" spreadMethod="reflect"><stop offset="0" style="stop-color:#6DC7FF"/><stop offset="1" style="stop-color:#E6ABFF"/></linearGradient><path style="fill:url(#SVGID_3__69425);" d="M38,29v-2c0-0.552,0.448-1,1-1h2c0.552,0,1,0.448,1,1v2c0,0.552-0.448,1-1,1h-2  C38.448,30,38,29.552,38,29z"/><linearGradient id="SVGID_4__69425" gradientUnits="userSpaceOnUse" x1="27.5" y1="21" x2="27.5" y2="44" spreadMethod="reflect"><stop offset="0" style="stop-color:#6DC7FF"/><stop offset="1" style="stop-color:#E6ABFF"/></linearGradient><path style="fill:url(#SVGID_4__69425);" d="M30,21h-5c-2.21,0-4,1.79-4,4v18c0,0.55,0.45,1,1,1h2c0.55,0,1-0.45,1-1v-7h5v7  c0,0.55,0.45,1,1,1h2c0.55,0,1-0.45,1-1V25C34,22.79,32.21,21,30,21z M29,32h-3c-0.55,0-1-0.45-1-1v-5c0-0.55,0.45-1,1-1h3  c0.55,0,1,0.45,1,1v5C30,31.55,29.55,32,29,32z"/></svg>